<?xml version="1.0" standalone="no"?>
<!DOCTYPE svg PUBLIC "-//W3C//DTD SVG 20010904//EN"
 "http://www.w3.org/TR/2001/REC-SVG-20010904/DTD/svg10.dtd">
<svg version="1.0" xmlns="http://www.w3.org/2000/svg"
 width="261.000000pt" height="261.000000pt" viewBox="0 0 261.000000 261.000000"
 preserveAspectRatio="xMidYMid meet">
<metadata>
Created by potrace 1.14, written by Peter Selinger 2001-2017
</metadata>
<g transform="translate(0.000000,261.000000) scale(0.100000,-0.100000)"
fill="#000000" stroke="none">
<path d="M924 2251 c-82 -50 -105 -137 -100 -376 3 -134 9 -198 30 -300 30
-146 58 -255 87 -333 l19 -53 -43 -62 c-82 -115 -120 -200 -147 -322 -24 -109
-33 -260 -16 -273 11 -9 229 -47 326 -58 113 -11 448 -5 535 11 22 4 49 9 60
11 11 2 55 11 99 20 l78 17 -6 96 c-9 136 -14 165 -46 261 -29 87 -80 186
-132 251 -32 42 -34 56 -13 106 35 84 98 349 112 473 9 82 9 267 0 343 -19
163 -121 246 -218 176 -46 -32 -85 -138 -106 -289 -11 -74 -10 -456 1 -552 l8
-77 -48 15 c-78 24 -172 19 -247 -11 -19 -8 -19 -3 3 175 8 74 6 349 -4 425
-19 142 -53 253 -90 294 -21 24 -74 51 -98 51 -7 0 -27 -9 -44 -19z m187
-1237 c9 -12 9 -13 -4 -9 -11 5 -17 -2 -22 -24 -4 -17 -13 -31 -21 -31 -17 0
-16 -3 -5 38 9 29 8 32 -12 33 -21 0 -21 1 -2 8 24 10 50 4 66 -15z m485 -6
c3 -5 3 -20 0 -34 -9 -36 -32 -24 -28 14 3 26 0 32 -16 32 -13 0 -22 -9 -26
-25 -7 -26 -29 -32 -56 -15 -13 8 -11 12 10 27 13 10 31 21 40 24 17 7 67 -8
76 -23z m-583 -26 c-6 -15 -12 -19 -23 -12 -12 7 -11 12 5 30 21 24 30 15 18
-18z m157 -65 c0 -4 -10 -2 -22 5 -13 7 -24 14 -26 14 -2 1 0 14 4 29 l7 28
18 -34 c10 -19 18 -37 19 -42z m299 10 c9 -12 -6 -92 -35 -186 -16 -51 -29 74
-14 143 11 56 27 69 49 43z m-516 -65 c-18 -70 -27 -82 -20 -25 9 63 18 93 27
88 5 -3 1 -31 -7 -63z m154 16 c30 -25 -4 -60 -50 -51 -18 3 -33 7 -34 7 -1 1
2 19 8 39 9 34 11 36 37 26 14 -6 32 -15 39 -21z m510 0 c20 -16 15 -38 -10
-47 -29 -11 -77 -3 -72 13 2 6 6 23 9 38 6 25 9 27 33 17 15 -6 33 -15 40 -21z
m-437 -90 c0 -16 -3 -19 -11 -11 -6 6 -8 16 -5 22 11 17 16 13 16 -11z m-97
-23 c20 -13 24 -21 18 -38 -6 -17 -18 -23 -47 -25 -56 -3 -66 6 -53 51 8 32
14 37 34 33 13 -2 35 -12 48 -21z m484 15 c66 -25 62 -80 -5 -80 -56 0 -64 9
-50 53 13 41 14 42 55 27z m-567 -140 c0 -11 -4 -20 -9 -20 -14 0 -23 18 -16
30 10 17 25 11 25 -10z m140 -10 c-26 -36 -50 -50 -85 -50 -21 0 -26 4 -21 16
3 9 6 22 6 30 0 10 13 14 43 14 23 0 49 5 57 10 23 15 23 12 0 -20z m370 18
c0 -27 -13 -58 -21 -52 -10 6 -12 48 -2 57 10 11 23 8 23 -5z m92 -38 c-35
-33 -68 -41 -58 -14 3 9 6 22 6 30 0 10 12 14 43 14 l42 -1 -33 -29z"/>
<path d="M617 794 c-1 -1 -31 -5 -67 -8 -84 -9 -123 -15 -185 -27 -27 -5 -61
-11 -74 -14 -147 -28 -260 -92 -275 -155 -19 -77 126 -156 359 -194 88 -15
166 -26 220 -31 33 -3 78 -8 100 -10 39 -4 168 -12 325 -20 225 -12 692 -1
905 21 143 14 225 24 245 29 8 2 38 7 65 11 28 3 53 8 56 10 3 2 21 6 39 9 54
10 152 45 197 71 99 57 88 141 -26 199 -51 26 -197 66 -286 80 -129 19 -189
26 -269 32 -82 6 -89 5 -83 -11 4 -10 7 -28 7 -40 0 -21 6 -24 73 -30 39 -3
88 -8 107 -11 19 -3 55 -7 80 -10 25 -3 52 -7 60 -10 8 -2 33 -6 55 -10 116
-16 265 -72 265 -99 0 -20 -119 -67 -210 -82 -14 -3 -31 -7 -38 -9 -23 -8
-207 -36 -272 -41 -36 -3 -76 -7 -90 -10 -150 -26 -1037 -25 -1201 1 -13 2
-53 6 -89 10 -258 25 -510 90 -510 132 0 13 86 59 127 68 10 2 47 10 83 19 73
17 229 41 335 51 39 4 71 7 72 8 0 1 4 19 8 40 l7 38 -57 -3 c-31 -2 -57 -4
-58 -4z"/>
</g>
</svg>
