<?xml version="1.0" encoding="utf-8"?>
<!-- Generator: Adobe Illustrator 27.3.1, SVG Export Plug-In . SVG Version: 6.00 Build 0)  -->
<svg version="1.1" id="Livello_1" xmlns="http://www.w3.org/2000/svg" xmlns:xlink="http://www.w3.org/1999/xlink" x="0px" y="0px"
	 viewBox="0 0 260 260" style="enable-background:new 0 0 260 260;" xml:space="preserve">
<style type="text/css">
	.st0{fill:#FF9500;}
	.st1{fill:none;}
	.st2{fill:#FFFFFF;}
</style>
<path class="st0" d="M118.41,175.77L118.41,175.77c0.69-4.64-2.84-7.14-7.67-8.8l1.57-6.29l-3.82-0.95l-1.52,6.12
	c-1.01-0.25-2.04-0.49-3.06-0.72l1.54-6.16l-3.82-0.95l-1.57,6.29c-0.83-0.19-1.65-0.38-2.44-0.57l0-0.02l-5.27-1.32l-1.02,4.09
	c0,0,2.84,0.65,2.78,0.69c1.55,0.39,1.83,1.41,1.78,2.23l-1.78,7.16c0.11,0.03,0.24,0.07,0.4,0.13c-0.13-0.03-0.26-0.07-0.4-0.1
	l-2.5,10.03c-0.19,0.47-0.67,1.18-1.75,0.91c0.04,0.06-2.78-0.69-2.78-0.69l-1.9,4.38l4.98,1.24c0.93,0.23,1.83,0.48,2.73,0.7
	l-1.58,6.36l3.82,0.95l1.57-6.29c1.04,0.28,2.06,0.54,3.05,0.79l-1.56,6.26l3.82,0.95l1.58-6.35c6.52,1.24,11.42,0.74,13.49-5.17
	c1.66-4.75-0.08-7.49-3.51-9.28C116.03,180.81,117.91,179.16,118.41,175.77z M109.67,188.03c-1.18,4.75-9.18,2.18-11.77,1.54
	l2.1-8.43C102.6,181.79,110.91,183.07,109.67,188.03z M110.86,175.7L110.86,175.7c-1.08,4.32-7.73,2.13-9.89,1.59l1.9-7.64
	C105.03,170.18,111.98,171.19,110.86,175.7z"/>
<g id="_1421344023328_00000175306438903065405770000010479872073792101053_">
	<path class="st0" d="M169.57,175.77c0.69-4.64-2.84-7.14-7.67-8.8l1.57-6.29l-3.82-0.95l-1.52,6.12c-1.01-0.25-2.04-0.49-3.06-0.72
		l1.54-6.16l-3.82-0.95l-1.57,6.29c-0.83-0.19-1.65-0.38-2.44-0.57l0-0.02l-5.27-1.32l-1.02,4.09c0,0,2.84,0.65,2.78,0.69
		c1.55,0.39,1.83,1.41,1.78,2.23l-1.78,7.16c0.11,0.03,0.24,0.07,0.4,0.13c-0.13-0.03-0.26-0.07-0.4-0.1l-2.5,10.03
		c-0.19,0.47-0.67,1.18-1.75,0.91c0.04,0.06-2.78-0.69-2.78-0.69l-1.9,4.38l4.98,1.24c0.93,0.23,1.83,0.48,2.73,0.7l-1.58,6.36
		l3.82,0.95l1.57-6.29c1.04,0.28,2.06,0.55,3.05,0.79l-1.56,6.26l3.82,0.95l1.58-6.35c6.52,1.24,11.42,0.74,13.49-5.17
		c1.66-4.75-0.08-7.49-3.51-9.28C167.19,180.81,169.07,179.16,169.57,175.77L169.57,175.77L169.57,175.77z M160.83,188.03
		c-1.18,4.75-9.18,2.18-11.77,1.54l2.1-8.43C153.76,181.79,162.07,183.07,160.83,188.03L160.83,188.03z M162.02,175.7
		c-1.08,4.32-7.73,2.13-9.89,1.59l1.9-7.64C156.19,170.18,163.14,171.19,162.02,175.7L162.02,175.7z"/>
</g>
<g>
	<path class="st1" d="M103.41,202.62c1.34,0.4,3.1,0.17,4.45-0.35c3.61-1.41,5.81-4.29,7.27-7.83c1.11-2.68,1.78-5.42,2.15-8.19
		c-8.66,0.13-16.83,0.41-24.49,0.79c0.65,3.59,1.87,7.09,3.8,10.46C98.2,200.32,100.61,201.78,103.41,202.62z"/>
	<path class="st1" d="M141.24,188.91c0.73,5.37,3,9.79,7.73,12.78c1.47,0.93,2.97,1.32,4.63,1.23c3.64-0.2,5.96-2.73,7.91-5.25
		c2.39-3.08,3.32-6.89,3.92-10.69c-7.68-0.37-15.87-0.63-24.54-0.75C141.01,187.13,141.12,188.02,141.24,188.91z"/>
	<path class="st1" d="M165.8,177.17c-0.34-5.71-1.64-11.27-5.22-15.85c-5.7-7.3-11.99-4.86-16.01,1.07
		c-3.25,4.8-4.05,10.37-4.45,16.05c6.51,0.12,15.54,0.37,25.74,0.88C165.83,178.61,165.84,177.88,165.8,177.17z"/>
	<path class="st1" d="M182.36,207.56c-8.85,1.71-17.64,3.83-26.56,4.99c-7.3,0.96-14.74,0.89-22.12,1.07
		c-5.76,0.14-11.54,0.2-17.28-0.12c-6.45-0.35-12.91-0.93-19.31-1.83c-7.19-1.01-14.31-2.53-21.48-3.71
		c-1.36-0.23-1.76-0.84-1.77-2.04c-0.08-5.92,0.08-11.81,0.86-17.69c-42.19,3.44-64.9,10.38-66.2,14.8
		c1.78,5.9,43.79,16.71,121.17,16.71c77.04,0,119.02-10.72,121.14-16.79c-1.57-4.48-24.86-11.49-67.92-14.85
		c0.77,5.87,1.04,11.8,0.91,17.76C183.79,206.94,183.28,207.38,182.36,207.56z"/>
	<path class="st1" d="M115.24,165.96c-1.44-3.37-3.26-6.34-6.59-8.21c-1.82-1.02-5.8-1.1-7.42,0.14c-2.08,1.59-3.93,3.25-5.2,5.73
		c-2.02,3.94-3.16,8.07-3.58,12.35c-0.11,1.14-0.17,2.28-0.2,3.41c9.89-0.51,18.7-0.77,25.33-0.91
		C117.5,174.14,116.95,169.97,115.24,165.96z"/>
	<path class="st2" d="M185.45,180.28c0.58,2.59,1.02,5.19,1.36,7.81c43.05,3.37,62.44,10.37,64,14.85
		c-2.12,6.07-44.1,16.79-121.14,16.79c-77.38,0-119.39-10.82-121.17-16.71c1.3-4.42,20.1-11.36,62.29-14.8
		c0.11-0.83,0.19-1.65,0.33-2.48c0.3-1.8,0.66-3.58,1.06-5.34c-35.46,2.66-71.49,8.71-71.49,22.54
		c0,24.33,123.72,24.61,128.98,24.61c5.27,0,128.98-0.28,128.98-24.61C258.65,188.89,221.32,182.87,185.45,180.28z"/>
	<path class="st2" d="M182.9,188.09c-5.5-0.43-11.32-0.8-17.47-1.1c-0.6,3.8-1.53,7.61-3.92,10.69c-1.96,2.52-4.27,5.05-7.91,5.25
		c-1.66,0.09-3.15-0.3-4.63-1.23c-4.74-3-7-7.41-7.73-12.78c-0.12-0.89-0.23-1.78-0.35-2.68c-0.29-2.18-0.57-4.36-0.86-6.55
		c0.03-0.42,0.06-0.83,0.09-1.25c0.4-5.68,1.2-11.26,4.45-16.05c4.02-5.93,10.31-8.37,16.01-1.07c3.57,4.58,4.87,10.14,5.22,15.85
		c0.04,0.71,0.04,1.44,0.06,2.16c0.07,2.24,0.06,4.49-0.26,6.68c-0.05,0.33-0.11,0.66-0.17,0.98
		C171.58,187.29,177.36,187.65,182.9,188.09c-0.34-2.62-0.78-5.22-1.36-7.81c-0.12-0.54-0.2-1.08-0.33-1.62
		c-1.55-6.34-3.52-12.59-6.72-18.34c-2.28-4.1-4.66-8.15-7.18-12.1c-1.18-1.85-2.78-3.44-4.22-5.12c-0.68-0.79-0.88-1.5-0.42-2.56
		c1.11-2.62,2.13-5.29,3.03-7.99c3.66-10.99,6.17-22.29,8.38-33.63c2.61-13.41,3.22-27.01,2.18-40.66
		c-0.46-5.98-1.39-11.77-4.45-17.12c-2.05-3.6-4.89-5.98-8.81-6.87c-1.6-0.37-3.51-0.17-5.09,0.35c-4.41,1.44-7.1,4.9-8.82,8.95
		c-1.52,3.58-2.8,7.33-3.6,11.12c-1.96,9.29-3.07,18.72-3.38,28.21c-0.22,6.7-0.12,13.42,0.14,20.11c0.2,5.21,0.8,10.4,1.32,15.59
		c0.33,3.29,0.84,6.56,1.3,10.07c-10.77-4.01-21.37-4.65-31.96,0.38c0.25-2.14,0.5-4.06,0.68-5.98c0.72-7.66,1.71-15.31,2.05-22.99
		c0.56-12.73-0.24-25.42-1.94-38.06c-0.8-5.94-2.27-11.72-4.4-17.29c-1.33-3.47-3.45-6.52-6.61-8.68
		c-5.01-3.41-9.89-2.73-14.34,1.91c-3.98,4.16-5.59,9.5-6.27,15.08c-1.4,11.65-1.1,23.32,0.2,34.94c0.78,7,2.22,13.94,3.57,20.87
		c0.85,4.34,2.04,8.62,3.15,12.91c0.94,3.62,1.89,7.24,3.02,10.81c1.03,3.25,2.29,6.42,3.51,9.81c-0.32,0.3-0.84,0.73-1.3,1.23
		c-3.13,3.38-5.54,7.25-7.99,11.13c-2.39,3.78-4.26,7.75-5.87,11.85c-1.76,4.5-3.2,9.1-4.27,13.81c-0.4,1.77-0.77,3.55-1.06,5.34
		c-0.14,0.83-0.22,1.65-0.33,2.48c-0.78,5.88-0.94,11.77-0.86,17.69c0.02,1.2,0.41,1.82,1.77,2.04c7.17,1.18,14.29,2.7,21.48,3.71
		c6.4,0.9,12.86,1.48,19.31,1.83c5.75,0.31,11.53,0.26,17.28,0.12c7.38-0.18,14.83-0.11,22.12-1.07c8.92-1.17,17.71-3.28,26.56-4.99
		c0.92-0.18,1.43-0.62,1.45-1.71C183.94,199.89,183.66,193.96,182.9,188.09z M117.28,186.25c-0.37,2.77-1.05,5.51-2.15,8.19
		c-1.46,3.54-3.66,6.42-7.27,7.83c-1.34,0.53-3.11,0.76-4.45,0.35c-2.81-0.84-5.21-2.3-6.83-5.12c-1.93-3.37-3.15-6.87-3.8-10.46
		c-0.45-2.51-0.61-5.06-0.54-7.66c0.03-1.13,0.08-2.26,0.2-3.41c0.42-4.28,1.56-8.42,3.58-12.35c1.28-2.48,3.13-4.14,5.2-5.73
		c1.62-1.24,5.6-1.16,7.42-0.14c3.33,1.87,5.14,4.83,6.59,8.21c1.71,4,2.26,8.18,2.34,12.51c0.01,0.73,0.04,1.45,0.03,2.19
		C117.66,182.54,117.53,184.4,117.28,186.25z"/>
</g>
<rect x="-35.59" y="6.17" class="st1" width="319.24" height="230.07"/>
</svg>
